#N canvas -8 -8 2560 1357 10;
#X text 164 48 1 Set IP Address : network address;
#X text 164 68 2 Set Ports (sending and listening);
#X text 164 87 3 Set OSC Addresses (routing osc data;
#X text 155 26 Key Settings;
#X obj 47 36 tgl 15 0 empty empty empty 17 7 0 10 -262144 -1 -1 1 1
;
#X msg 47 61 \; pd dsp \$1;
#X text 29 222 creation arguments are OSC address;
#X text 49 185 set message to change OSC address;
#X floatatom 14 129 5 0 0 0 - - -, f 5;
#N canvas 394 501 494 445 oscReceive 1;
#X obj 55 184 netreceive -u -b;
#X msg 78 143 listen 0;
#X text 152 143 stop listening;
#X text 64 85 packets from network;
#X text 173 177 UDP packets \, binary output, f 13;
#X obj 45 314 print;
#X obj 45 272 oscparse;
#X text 150 114 listen on port 8000;
#X obj 177 269 oscparse;
#X obj 177 293 list trim;
#X floatatom 177 363 5 0 0 0 - - -, f 5;
#X text 241 267 Parse the OSC message;
#X obj 177 319 route unity;
#X obj 176 340 route trigger;
#X obj 177 390 s osctrig;
#X msg 66 115 listen 8000;
#X obj 285 340 route score;
#X floatatom 285 363 5 0 0 0 - - -, f 5;
#X obj 285 389 s oscfood;
#X connect 0 0 6 0;
#X connect 0 0 8 0;
#X connect 1 0 0 0;
#X connect 6 0 5 0;
#X connect 8 0 9 0;
#X connect 9 0 12 0;
#X connect 10 0 14 0;
#X connect 12 0 13 0;
#X connect 12 0 16 0;
#X connect 13 0 10 0;
#X connect 15 0 0 0;
#X connect 16 0 17 0;
#X connect 17 0 18 0;
#X restore 63 143 pd oscReceive;
#X obj 14 205 oscformat PD message;
#X msg 50 166 set PD message;
#N canvas 188 528 450 300 oscSend 1;
#X msg 158 207 disconnect;
#X obj 61 253 netsend -u -b;
#X obj 59 55 list prepend send;
#X obj 59 80 list trim;
#X msg 150 175 connect 127.0.0.1 8001;
#X obj 59 29 r oscOut;
#X text 301 163 send to port 8001;
#X msg 147 148 connect localhost 8001;
#X connect 0 0 1 0;
#X connect 2 0 3 0;
#X connect 3 0 1 0;
#X connect 4 0 1 0;
#X connect 5 0 2 0;
#X connect 7 0 1 0;
#X restore 61 117 pd oscSend;
#X obj 16 242 s oscOut;
#X floatatom 335 203 5 0 0 0 - - -, f 5;
#X obj 356 271 del 200;
#X obj 314 232 / 2;
#X obj 254 290 vline~;
#X obj 254 311 *~ -1;
#X obj 254 332 +~ 0.25;
#X obj 254 353 cos~;
#X obj 254 383 *~;
#X obj 314 299 f;
#X obj 314 351 vline~;
#X obj 314 372 *~ -1;
#X obj 314 393 +~ 0.25;
#X obj 314 414 cos~;
#X obj 314 443 *~;
#X obj 254 464 +~;
#X obj 279 498 *~;
#X obj 369 394 noise~;
#X obj 369 415 lop~ 150 20;
#X obj 369 437 *~ 2;
#X obj 271 546 dac~;
#X obj 899 -47 r osctrig;
#X floatatom 900 -15 5 0 0 0 - - -, f 5;
#X obj 338 170 f;
#X obj 432 106 bng 15 250 50 0 empty empty empty 17 7 0 10 -262144
-1 -1;
#X msg 254 269 0 0 0 \, 0.5 \$1 0;
#X msg 314 326 0 0 0 \, 0.5 \$1 0;
#X obj 511 116 bng 15 250 50 0 empty empty empty 17 7 0 10 -262144
-1 -1;
#X obj 511 181 del 400;
#X obj 690 243 del 800;
#X obj 886 252 del 1200;
#X floatatom 518 272 5 0 0 0 - - -, f 5;
#X obj 539 340 del 200;
#X obj 497 301 / 2;
#X obj 437 359 vline~;
#X obj 437 380 *~ -1;
#X obj 437 401 +~ 0.25;
#X obj 437 422 cos~;
#X obj 437 452 *~;
#X obj 497 368 f;
#X obj 497 420 vline~;
#X obj 497 441 *~ -1;
#X obj 497 462 +~ 0.25;
#X obj 497 483 cos~;
#X obj 497 512 *~;
#X obj 437 533 +~;
#X obj 462 567 *~;
#X obj 552 463 noise~;
#X obj 552 484 lop~ 150 20;
#X obj 552 506 *~ 2;
#X obj 521 239 f;
#X msg 437 338 0 0 0 \, 0.5 \$1 0;
#X msg 497 395 0 0 0 \, 0.5 \$1 0;
#X floatatom 708 327 5 0 0 0 - - -, f 5;
#X obj 729 395 del 200;
#X obj 687 356 / 2;
#X obj 627 414 vline~;
#X obj 627 435 *~ -1;
#X obj 627 456 +~ 0.25;
#X obj 627 477 cos~;
#X obj 627 507 *~;
#X obj 687 423 f;
#X obj 687 475 vline~;
#X obj 687 496 *~ -1;
#X obj 687 517 +~ 0.25;
#X obj 687 538 cos~;
#X obj 687 567 *~;
#X obj 627 588 +~;
#X obj 652 621 *~;
#X obj 742 518 noise~;
#X obj 742 539 lop~ 150 20;
#X obj 742 561 *~ 2;
#X obj 711 294 f;
#X msg 627 393 0 0 0 \, 0.5 \$1 0;
#X msg 687 450 0 0 0 \, 0.5 \$1 0;
#X floatatom 920 350 5 0 0 0 - - -, f 5;
#X obj 941 418 del 200;
#X obj 899 379 / 2;
#X obj 839 437 vline~;
#X obj 839 458 *~ -1;
#X obj 839 479 +~ 0.25;
#X obj 839 500 cos~;
#X obj 839 530 *~;
#X obj 899 446 f;
#X obj 899 498 vline~;
#X obj 899 519 *~ -1;
#X obj 899 540 +~ 0.25;
#X obj 899 561 cos~;
#X obj 899 590 *~;
#X obj 839 611 +~;
#X obj 954 541 noise~;
#X obj 954 562 lop~ 150 20;
#X obj 954 584 *~ 2;
#X obj 923 317 f;
#X msg 839 416 0 0 0 \, 0.5 \$1 0;
#X msg 899 473 0 0 0 \, 0.5 \$1 0;
#X msg 521 217 150;
#X msg 711 273 150;
#X msg 923 296 150;
#X obj 462 588 *~ 0.75;
#X obj 462 609 dac~;
#X obj 652 642 *~ 0.5;
#X obj 652 663 dac~;
#X obj 864 645 *~;
#X obj 864 666 *~ 0.25;
#X obj 864 687 dac~;
#X obj 1088 177 bng 15 250 50 0 empty empty empty 17 7 0 10 -262144
-1 -1;
#X obj 1045 219 bng 15 250 50 0 empty empty empty 17 7 0 10 -262144
-1 -1;
#X msg 1074 426 300;
#X msg 1128 425 500;
#X obj 1053 538 vline~;
#X floatatom 1101 470 5 0 0 0 - - -, f 5;
#X obj 1095 498 phasor~;
#X msg 963 245 1 50 \, 0 25 175 \, 1 50 200 \, 0 100 500;
#X obj 1121 299 del 200;
#X obj 1936 274 bng 15 250 50 0 empty empty empty 17 7 0 10 -262144
-1 -1;
#X obj 1925 354 soundfiler;
#N canvas 0 50 450 250 (subpatch) 0;
#X array voice3 576052 float 0;
#X coords 0 1 576051 -1 200 140 1;
#X restore 1905 449 graph;
#X obj 1937 247 loadbang;
#X msg 1937 307 read -resize fight.wav voice3;
#X floatatom 1927 397 5 0 0 0 - - -, f 5;
#X obj 1522 101 bng 15 250 50 0 empty empty empty 17 7 0 10 -262144
-1 -1;
#X obj 1687 148 del 300;
#X obj 1720 212 del 900;
#X msg 1640 211 300;
#X msg 1723 263 900;
#X floatatom 1641 255 5 0 0 0 - - -, f 5;
#X obj 1530 307 vline~;
#X obj 1539 174 bng 15 250 50 0 empty empty empty 17 7 0 10 -262144
-1 -1;
#X obj 1662 371 *~, f 11;
#X obj 1639 287 noise~;
#X msg 1443 250 0 25 175 \, 1 50 200 \, 0 100 500;
#X obj 1720 305 noise~;
#X obj 912 8 select 1 2 3 4 5 6;
#X obj 1109 563 *~;
#X obj 1099 630 dac~;
#X obj 1662 409 dac~;
#X obj 1109 582 *~ 0.25;
#X obj 1662 390 *~ 0.1;
#X obj 935 -148 r oscfood;
#X floatatom 940 -126 5 0 0 0 - - -, f 5;
#X msg 318 126 200;
#X obj 513 40 +;
#X msg 451 21 300;
#X obj 715 -39 f;
#X obj 697 -7 *;
#X floatatom 697 12 5 0 0 0 - - -, f 5;
#X obj 570 -8 * -1.1666;
#X obj 697 30 * 0.0016666;
#X obj 576 59 +;
#X obj 1302 429 lop~ 4000;
#X obj 1392 430 bp~ 200 20;
#X obj 1491 434 hip~ 200;
#X obj 1299 489 *~ 0.5;
#X obj 1389 488 *~ 0.5;
#X obj 1478 494 *~ 0.5;
#X obj 1378 669 dac~;
#X obj 1399 560 *~ 0.3;
#X obj 1188 85 f;
#X obj 1162 118 *;
#X obj 1161 137 * -0.03333;
#X obj 1228 111 * 23.3333;
#X obj 1209 171 +;
#X obj 1209 190 + 11000;
#X floatatom 1209 209 8 0 0 0 - - -, f 8;
#X obj 1199 299 pack;
#X obj 1368 379 tabread4~ voice3;
#X obj 1307 177 bng 15 250 50 0 empty empty empty 17 7 0 10 -262144
-1 -1;
#X obj 1431 125 bng 15 250 50 0 empty empty empty 17 7 0 10 -262144
-1 -1;
#X obj 1258 247 del 1;
#X msg 1432 205 0;
#X msg 1244 272 576052;
#X obj 1349 342 line~;
#X obj 1366 168 tgl 15 0 empty empty empty 17 7 0 10 -262144 -1 -1
0 1;
#X obj 1301 100 bng 15 250 50 0 empty empty empty 17 7 0 10 -262144
-1 -1;
#X obj 1334 224 del;
#X obj 1334 247 spigot;
#X obj 1366 218 == 1;
#X connect 4 0 5 0;
#X connect 8 0 10 0;
#X connect 10 0 13 0;
#X connect 11 0 10 0;
#X connect 14 0 15 0;
#X connect 14 0 15 1;
#X connect 14 0 16 0;
#X connect 15 0 22 0;
#X connect 16 0 38 0;
#X connect 16 0 22 1;
#X connect 17 0 18 0;
#X connect 18 0 19 0;
#X connect 19 0 20 0;
#X connect 20 0 21 0;
#X connect 20 0 21 1;
#X connect 21 0 28 0;
#X connect 22 0 39 0;
#X connect 23 0 24 0;
#X connect 24 0 25 0;
#X connect 25 0 26 0;
#X connect 26 0 27 0;
#X connect 26 0 27 1;
#X connect 27 0 28 1;
#X connect 28 0 29 0;
#X connect 29 0 33 0;
#X connect 29 0 33 1;
#X connect 30 0 31 0;
#X connect 31 0 32 0;
#X connect 32 0 29 1;
#X connect 34 0 35 0;
#X connect 35 0 146 0;
#X connect 36 0 14 0;
#X connect 37 0 36 0;
#X connect 38 0 17 0;
#X connect 39 0 23 0;
#X connect 40 0 41 0;
#X connect 40 0 42 0;
#X connect 40 0 43 0;
#X connect 41 0 109 0;
#X connect 42 0 110 0;
#X connect 43 0 111 0;
#X connect 44 0 45 0;
#X connect 44 0 45 1;
#X connect 44 0 46 0;
#X connect 45 0 52 0;
#X connect 46 0 64 0;
#X connect 46 0 52 1;
#X connect 47 0 48 0;
#X connect 48 0 49 0;
#X connect 49 0 50 0;
#X connect 50 0 51 0;
#X connect 50 0 51 1;
#X connect 51 0 58 0;
#X connect 52 0 65 0;
#X connect 53 0 54 0;
#X connect 54 0 55 0;
#X connect 55 0 56 0;
#X connect 56 0 57 0;
#X connect 56 0 57 1;
#X connect 57 0 58 1;
#X connect 58 0 59 0;
#X connect 59 0 112 0;
#X connect 60 0 61 0;
#X connect 61 0 62 0;
#X connect 62 0 59 1;
#X connect 63 0 44 0;
#X connect 64 0 47 0;
#X connect 65 0 53 0;
#X connect 66 0 67 0;
#X connect 66 0 67 1;
#X connect 66 0 68 0;
#X connect 67 0 74 0;
#X connect 68 0 86 0;
#X connect 68 0 74 1;
#X connect 69 0 70 0;
#X connect 70 0 71 0;
#X connect 71 0 72 0;
#X connect 72 0 73 0;
#X connect 72 0 73 1;
#X connect 73 0 80 0;
#X connect 74 0 87 0;
#X connect 75 0 76 0;
#X connect 76 0 77 0;
#X connect 77 0 78 0;
#X connect 78 0 79 0;
#X connect 78 0 79 1;
#X connect 79 0 80 1;
#X connect 80 0 81 0;
#X connect 81 0 114 0;
#X connect 82 0 83 0;
#X connect 83 0 84 0;
#X connect 84 0 81 1;
#X connect 85 0 66 0;
#X connect 86 0 69 0;
#X connect 87 0 75 0;
#X connect 88 0 89 0;
#X connect 88 0 89 1;
#X connect 88 0 90 0;
#X connect 89 0 96 0;
#X connect 90 0 107 0;
#X connect 90 0 96 1;
#X connect 91 0 92 0;
#X connect 92 0 93 0;
#X connect 93 0 94 0;
#X connect 94 0 95 0;
#X connect 94 0 95 1;
#X connect 95 0 102 0;
#X connect 96 0 108 0;
#X connect 97 0 98 0;
#X connect 98 0 99 0;
#X connect 99 0 100 0;
#X connect 100 0 101 0;
#X connect 100 0 101 1;
#X connect 101 0 102 1;
#X connect 102 0 116 0;
#X connect 103 0 104 0;
#X connect 104 0 105 0;
#X connect 105 0 116 1;
#X connect 106 0 88 0;
#X connect 107 0 91 0;
#X connect 108 0 97 0;
#X connect 109 0 63 0;
#X connect 110 0 85 0;
#X connect 111 0 106 0;
#X connect 112 0 113 0;
#X connect 112 0 113 1;
#X connect 114 0 115 0;
#X connect 114 0 115 1;
#X connect 116 0 117 0;
#X connect 117 0 118 0;
#X connect 117 0 118 1;
#X connect 119 0 120 0;
#X connect 119 0 127 0;
#X connect 119 0 121 0;
#X connect 120 0 126 0;
#X connect 121 0 124 0;
#X connect 122 0 124 0;
#X connect 123 0 147 1;
#X connect 124 0 125 0;
#X connect 125 0 147 0;
#X connect 126 0 123 0;
#X connect 127 0 122 0;
#X connect 128 0 132 0;
#X connect 129 0 133 0;
#X connect 131 0 128 0;
#X connect 132 0 129 0;
#X connect 134 0 135 0;
#X connect 134 0 141 0;
#X connect 135 0 136 0;
#X connect 135 0 137 0;
#X connect 136 0 138 0;
#X connect 137 0 139 0;
#X connect 138 0 145 0;
#X connect 139 0 143 0;
#X connect 140 0 142 1;
#X connect 141 0 144 0;
#X connect 142 0 151 0;
#X connect 143 0 142 0;
#X connect 144 0 140 0;
#X connect 145 0 142 0;
#X connect 146 0 37 0;
#X connect 146 1 40 0;
#X connect 146 2 119 0;
#X connect 146 3 187 0;
#X connect 146 4 134 0;
#X connect 146 5 181 0;
#X connect 147 0 150 0;
#X connect 150 0 148 0;
#X connect 150 0 148 1;
#X connect 151 0 149 0;
#X connect 151 0 149 1;
#X connect 152 0 153 0;
#X connect 152 0 156 0;
#X connect 153 0 157 0;
#X connect 153 0 171 0;
#X connect 154 0 36 0;
#X connect 155 0 162 0;
#X connect 156 0 155 0;
#X connect 157 0 158 0;
#X connect 157 0 158 1;
#X connect 157 0 160 0;
#X connect 158 0 159 0;
#X connect 159 0 161 0;
#X connect 160 0 155 1;
#X connect 161 0 162 1;
#X connect 162 0 36 0;
#X connect 163 0 166 0;
#X connect 164 0 167 0;
#X connect 165 0 168 0;
#X connect 166 0 170 0;
#X connect 167 0 170 0;
#X connect 168 0 170 0;
#X connect 170 0 169 0;
#X connect 170 0 169 1;
#X connect 171 0 172 0;
#X connect 171 0 172 1;
#X connect 171 0 174 0;
#X connect 172 0 173 0;
#X connect 173 0 175 0;
#X connect 174 0 175 1;
#X connect 175 0 176 0;
#X connect 176 0 177 0;
#X connect 177 0 178 1;
#X connect 177 0 188 1;
#X connect 178 0 185 0;
#X connect 179 0 163 0;
#X connect 179 0 164 0;
#X connect 179 0 165 0;
#X connect 180 0 182 0;
#X connect 180 0 183 0;
#X connect 180 0 188 0;
#X connect 181 0 186 0;
#X connect 181 0 183 0;
#X connect 182 0 184 0;
#X connect 183 0 185 0;
#X connect 184 0 178 0;
#X connect 185 0 179 0;
#X connect 186 0 190 0;
#X connect 187 0 180 0;
#X connect 187 0 186 0;
#X connect 188 0 189 0;
#X connect 189 0 180 0;
#X connect 190 0 189 1;
